<svg width="128" height="128" viewBox="0 0 128 128" fill="none" xmlns="http://www.w3.org/2000/svg">
  <rect width="128" height="128" rx="28" fill="#0F172A"/>
  <circle cx="64" cy="64" r="34" fill="#22C55E"/>
  <path d="M47 57.5C47 51.1487 52.1487 46 58.5 46H70.5C76.8513 46 82 51.1487 82 57.5C82 63.8513 76.8513 69 70.5 69H58.5C52.1487 69 47 63.8513 47 57.5Z" fill="white"/>
  <path d="M47 70.5C47 64.1487 52.1487 59 58.5 59H70.5C76.8513 59 82 64.1487 82 70.5C82 76.8513 76.8513 82 70.5 82H58.5C52.1487 82 47 76.8513 47 70.5Z" fill="#0F172A"/>
</svg>